<mxfile host="www.draw.io" modified="2019-11-15T08:49:03.101Z" agent="Mozilla/5.0 (Windows NT 10.0; Win64; x64) AppleWebKit/537.36 (KHTML, like Gecko) Chrome/78.0.3904.97 Safari/537.36" etag="L91EAI3SldnanuJLwq0e" version="12.2.6" type="github" pages="1">
  <diagram id="SjfLgrAC4Jbiv7_delZh" name="Page-1">
    <mxGraphModel dx="1024" dy="566" grid="1" gridSize="10" guides="1" tooltips="1" connect="1" arrows="1" fold="1" page="1" pageScale="1" pageWidth="850" pageHeight="1100" math="0" shadow="0">
      <root>
        <mxCell id="0"/>
        <mxCell id="1" parent="0"/>
        <mxCell id="v8hNL1Z1Vv3YIJuYa0NU-78" value="Buzzers" style="strokeWidth=1;shadow=0;dashed=0;align=center;html=1;shape=mxgraph.mockup.containers.window;align=left;verticalAlign=top;spacingLeft=8;strokeColor2=#008cff;strokeColor3=#c4c4c4;fontColor=#666666;mainText=;fontSize=17;labelBackgroundColor=none;" vertex="1" parent="1">
          <mxGeometry x="40" y="450" width="550" height="380" as="geometry"/>
        </mxCell>
        <mxCell id="v8hNL1Z1Vv3YIJuYa0NU-79" value="firstname" style="strokeWidth=1;shadow=0;dashed=0;align=center;html=1;shape=mxgraph.mockup.text.textBox;fontColor=#666666;align=left;fontSize=17;spacingLeft=4;spacingTop=-3;strokeColor=#666666;mainText=" vertex="1" parent="1">
          <mxGeometry x="80" y="540" width="150" height="30" as="geometry"/>
        </mxCell>
        <mxCell id="v8hNL1Z1Vv3YIJuYa0NU-80" value="lastname" style="strokeWidth=1;shadow=0;dashed=0;align=center;html=1;shape=mxgraph.mockup.text.textBox;fontColor=#666666;align=left;fontSize=17;spacingLeft=4;spacingTop=-3;strokeColor=#666666;mainText=" vertex="1" parent="1">
          <mxGeometry x="250" y="540" width="150" height="30" as="geometry"/>
        </mxCell>
        <mxCell id="v8hNL1Z1Vv3YIJuYa0NU-81" value="email" style="strokeWidth=1;shadow=0;dashed=0;align=center;html=1;shape=mxgraph.mockup.text.textBox;fontColor=#666666;align=left;fontSize=17;spacingLeft=4;spacingTop=-3;strokeColor=#666666;mainText=" vertex="1" parent="1">
          <mxGeometry x="80" y="590" width="150" height="30" as="geometry"/>
        </mxCell>
        <mxCell id="v8hNL1Z1Vv3YIJuYa0NU-82" value="password" style="strokeWidth=1;shadow=0;dashed=0;align=center;html=1;shape=mxgraph.mockup.text.textBox;fontColor=#666666;align=left;fontSize=17;spacingLeft=4;spacingTop=-3;strokeColor=#666666;mainText=" vertex="1" parent="1">
          <mxGeometry x="250" y="590" width="150" height="30" as="geometry"/>
        </mxCell>
        <mxCell id="v8hNL1Z1Vv3YIJuYa0NU-83" value="usertype" style="strokeWidth=1;shadow=0;dashed=0;align=center;html=1;shape=mxgraph.mockup.forms.comboBox;strokeColor=#999999;fillColor=#ddeeff;align=left;fillColor2=#aaddff;mainText=;fontColor=#666666;fontSize=17;spacingLeft=3;" vertex="1" parent="1">
          <mxGeometry x="80" y="690" width="150" height="30" as="geometry"/>
        </mxCell>
        <mxCell id="v8hNL1Z1Vv3YIJuYa0NU-84" value="gender" style="strokeWidth=1;shadow=0;dashed=0;align=center;html=1;shape=mxgraph.mockup.forms.comboBox;strokeColor=#999999;fillColor=#ddeeff;align=left;fillColor2=#aaddff;mainText=;fontColor=#666666;fontSize=17;spacingLeft=3;" vertex="1" parent="1">
          <mxGeometry x="80" y="740" width="150" height="30" as="geometry"/>
        </mxCell>
        <mxCell id="v8hNL1Z1Vv3YIJuYa0NU-85" value="bdate datepicker!!!!" style="strokeWidth=1;shadow=0;dashed=0;align=center;html=1;shape=mxgraph.mockup.text.textBox;fontColor=#666666;align=left;fontSize=17;spacingLeft=4;spacingTop=-3;strokeColor=#666666;mainText=" vertex="1" parent="1">
          <mxGeometry x="80" y="640" width="150" height="30" as="geometry"/>
        </mxCell>
        <mxCell id="v8hNL1Z1Vv3YIJuYa0NU-86" value="Imagebutton" style="verticalLabelPosition=bottom;shadow=0;dashed=0;align=center;html=1;verticalAlign=top;strokeWidth=1;shape=mxgraph.mockup.containers.userFemale;strokeColor=#666666;strokeColor2=#008cff;" vertex="1" parent="1">
          <mxGeometry x="430" y="540" width="100" height="100" as="geometry"/>
        </mxCell>
        <mxCell id="v8hNL1Z1Vv3YIJuYa0NU-88" value="Base model" style="text;html=1;strokeColor=none;fillColor=none;align=center;verticalAlign=middle;whiteSpace=wrap;rounded=0;" vertex="1" parent="1">
          <mxGeometry x="40" y="20" width="100" height="20" as="geometry"/>
        </mxCell>
        <mxCell id="v8hNL1Z1Vv3YIJuYa0NU-89" value="Base model . with nice to have" style="text;html=1;strokeColor=none;fillColor=none;align=center;verticalAlign=middle;whiteSpace=wrap;rounded=0;" vertex="1" parent="1">
          <mxGeometry x="40" y="430" width="220" height="20" as="geometry"/>
        </mxCell>
        <mxCell id="v8hNL1Z1Vv3YIJuYa0NU-91" value="" style="strokeWidth=1;shadow=0;dashed=0;align=center;html=1;shape=mxgraph.mockup.forms.rrect;rSize=0;strokeColor=#999999;fillColor=#ffffff;recursiveResize=0;" vertex="1" parent="1">
          <mxGeometry x="260" y="706.5" width="150" height="60" as="geometry"/>
        </mxCell>
        <mxCell id="v8hNL1Z1Vv3YIJuYa0NU-92" value="Females" style="strokeWidth=1;shadow=0;dashed=0;align=center;html=1;shape=mxgraph.mockup.forms.rrect;rSize=0;fillColor=#eeeeee;strokeColor=#999999;gradientColor=#cccccc;align=left;spacingLeft=4;fontSize=17;fontColor=#666666;labelPosition=right;" vertex="1" parent="v8hNL1Z1Vv3YIJuYa0NU-91">
          <mxGeometry x="8" y="7.5" width="15" height="15" as="geometry"/>
        </mxCell>
        <mxCell id="v8hNL1Z1Vv3YIJuYa0NU-93" value="Males" style="strokeWidth=1;shadow=0;dashed=0;align=center;html=1;shape=mxgraph.mockup.forms.rrect;rSize=0;fillColor=#eeeeee;strokeColor=#999999;gradientColor=#cccccc;align=left;spacingLeft=4;fontSize=17;fontColor=#666666;labelPosition=right;" vertex="1" parent="v8hNL1Z1Vv3YIJuYa0NU-91">
          <mxGeometry x="8" y="37.5" width="15" height="15" as="geometry"/>
        </mxCell>
        <mxCell id="v8hNL1Z1Vv3YIJuYa0NU-96" value="Preferences" style="text;html=1;strokeColor=none;fillColor=none;align=center;verticalAlign=middle;whiteSpace=wrap;rounded=0;" vertex="1" parent="1">
          <mxGeometry x="280" y="670" width="40" height="20" as="geometry"/>
        </mxCell>
        <mxCell id="v8hNL1Z1Vv3YIJuYa0NU-97" value="Buzzers" style="strokeWidth=1;shadow=0;dashed=0;align=center;html=1;shape=mxgraph.mockup.containers.window;align=left;verticalAlign=top;spacingLeft=8;strokeColor2=#008cff;strokeColor3=#c4c4c4;fontColor=#666666;mainText=;fontSize=17;labelBackgroundColor=none;" vertex="1" parent="1">
          <mxGeometry x="40" y="40" width="550" height="380" as="geometry"/>
        </mxCell>
        <mxCell id="v8hNL1Z1Vv3YIJuYa0NU-98" value="firstname" style="strokeWidth=1;shadow=0;dashed=0;align=center;html=1;shape=mxgraph.mockup.text.textBox;fontColor=#666666;align=left;fontSize=17;spacingLeft=4;spacingTop=-3;strokeColor=#666666;mainText=" vertex="1" parent="1">
          <mxGeometry x="80" y="130" width="150" height="30" as="geometry"/>
        </mxCell>
        <mxCell id="v8hNL1Z1Vv3YIJuYa0NU-99" value="lastname" style="strokeWidth=1;shadow=0;dashed=0;align=center;html=1;shape=mxgraph.mockup.text.textBox;fontColor=#666666;align=left;fontSize=17;spacingLeft=4;spacingTop=-3;strokeColor=#666666;mainText=" vertex="1" parent="1">
          <mxGeometry x="250" y="130" width="150" height="30" as="geometry"/>
        </mxCell>
        <mxCell id="v8hNL1Z1Vv3YIJuYa0NU-100" value="email" style="strokeWidth=1;shadow=0;dashed=0;align=center;html=1;shape=mxgraph.mockup.text.textBox;fontColor=#666666;align=left;fontSize=17;spacingLeft=4;spacingTop=-3;strokeColor=#666666;mainText=" vertex="1" parent="1">
          <mxGeometry x="80" y="180" width="150" height="30" as="geometry"/>
        </mxCell>
        <mxCell id="v8hNL1Z1Vv3YIJuYa0NU-101" value="password" style="strokeWidth=1;shadow=0;dashed=0;align=center;html=1;shape=mxgraph.mockup.text.textBox;fontColor=#666666;align=left;fontSize=17;spacingLeft=4;spacingTop=-3;strokeColor=#666666;mainText=" vertex="1" parent="1">
          <mxGeometry x="250" y="180" width="150" height="30" as="geometry"/>
        </mxCell>
        <mxCell id="v8hNL1Z1Vv3YIJuYa0NU-102" value="usertype" style="strokeWidth=1;shadow=0;dashed=0;align=center;html=1;shape=mxgraph.mockup.forms.comboBox;strokeColor=#999999;fillColor=#ddeeff;align=left;fillColor2=#aaddff;mainText=;fontColor=#666666;fontSize=17;spacingLeft=3;" vertex="1" parent="1">
          <mxGeometry x="80" y="280" width="150" height="30" as="geometry"/>
        </mxCell>
        <mxCell id="v8hNL1Z1Vv3YIJuYa0NU-103" value="gender" style="strokeWidth=1;shadow=0;dashed=0;align=center;html=1;shape=mxgraph.mockup.forms.comboBox;strokeColor=#999999;fillColor=#ddeeff;align=left;fillColor2=#aaddff;mainText=;fontColor=#666666;fontSize=17;spacingLeft=3;" vertex="1" parent="1">
          <mxGeometry x="80" y="330" width="150" height="30" as="geometry"/>
        </mxCell>
        <mxCell id="v8hNL1Z1Vv3YIJuYa0NU-104" value="bdate datepicker!!!!" style="strokeWidth=1;shadow=0;dashed=0;align=center;html=1;shape=mxgraph.mockup.text.textBox;fontColor=#666666;align=left;fontSize=17;spacingLeft=4;spacingTop=-3;strokeColor=#666666;mainText=" vertex="1" parent="1">
          <mxGeometry x="80" y="230" width="150" height="30" as="geometry"/>
        </mxCell>
        <mxCell id="v8hNL1Z1Vv3YIJuYa0NU-105" value="Imagebutton" style="verticalLabelPosition=bottom;shadow=0;dashed=0;align=center;html=1;verticalAlign=top;strokeWidth=1;shape=mxgraph.mockup.containers.userFemale;strokeColor=#666666;strokeColor2=#008cff;" vertex="1" parent="1">
          <mxGeometry x="430" y="130" width="100" height="100" as="geometry"/>
        </mxCell>
      </root>
    </mxGraphModel>
  </diagram>
</mxfile>
